<?xml version="1.0" encoding="UTF-8"?>
<svg xmlns="http://www.w3.org/2000/svg" xmlns:xlink="http://www.w3.org/1999/xlink" width="193pt" height="193pt" viewBox="0 0 193 193" version="1.1">
<g id="surface1">
<path style=" stroke:none;fill-rule:evenodd;fill:rgb(100%,100%,100%);fill-opacity:1;" d="M 0 0.242188 L 192.757813 0.242188 L 192.757813 193 L 0 193 L 0 0.242188 "/>
<path style=" stroke:none;fill-rule:evenodd;fill:rgb(13.699341%,12.199402%,12.5%);fill-opacity:1;" d="M 63.402344 110.707031 L 44.835938 110.707031 L 44.835938 109.511719 C 47.425781 109.511719 48.027344 108.878906 48.027344 107.167969 L 48.027344 89.855469 C 48.027344 88.152344 47.425781 87.507813 44.90625 87.507813 L 44.90625 86.316406 L 55.046875 86.316406 L 55.046875 87.507813 C 52.25 87.507813 51.648438 88.152344 51.648438 89.855469 L 51.648438 107.167969 C 51.648438 108.878906 52.425781 109.511719 54.234375 109.511719 C 57.28125 109.511719 60.964844 108.449219 62.523438 101.597656 L 63.613281 101.597656 L 63.402344 110.707031 "/>
<path style=" stroke:none;fill-rule:evenodd;fill:rgb(13.699341%,12.199402%,12.5%);fill-opacity:1;" d="M 68.984375 101.070313 C 68.984375 98.507813 69.480469 94.800781 72.898438 94.800781 C 76.382813 94.800781 76.882813 98.507813 76.882813 101.070313 Z M 80.5 102.261719 C 80.5 96.511719 77.128906 93.609375 72.96875 93.609375 C 68.558594 93.609375 65.15625 97.652344 65.15625 102.367188 C 65.15625 107.097656 68.558594 111.136719 72.96875 111.136719 C 76.773438 111.136719 78.726563 109.589844 80.324219 107.238281 L 79.472656 106.667969 C 78.125 108.484375 76.527344 109.941406 74.144531 109.941406 C 71.085938 109.941406 68.984375 107.167969 68.984375 102.261719 L 80.5 102.261719 "/>
<path style=" stroke:none;fill-rule:evenodd;fill:rgb(13.699341%,12.199402%,12.5%);fill-opacity:1;" d="M 93.125 104.539063 C 93.125 107.546875 91.179688 109.644531 88.949219 109.644531 C 87.285156 109.644531 86.472656 108.507813 86.472656 106.910156 C 86.472656 103.820313 90.648438 102.046875 93.125 101.441406 Z M 98.925781 106.597656 C 98.925781 107.453125 98.679688 109.085938 97.546875 109.085938 C 96.878906 109.085938 96.453125 108.871094 96.453125 107.097656 L 96.453125 98.5 C 96.453125 94.730469 94.1875 93.609375 89.578125 93.609375 C 86.34375 93.609375 83.535156 95.40625 83.535156 97.574219 C 83.535156 98.640625 84.390625 99.632813 85.601563 99.632813 C 86.808594 99.632813 87.664063 98.640625 87.664063 97.574219 C 87.664063 96.574219 87.09375 95.867188 86.132813 95.691406 C 87.199219 95.015625 88.230469 94.800781 89.472656 94.800781 C 90.820313 94.800781 93.125 95.226563 93.125 97.003906 L 93.125 100.308594 C 90.117188 101.335938 82.640625 102.96875 82.640625 107.050781 C 82.640625 109.820313 85.121094 111.132813 87.636719 111.132813 C 90.257813 111.132813 92.347656 110.351563 93.339844 107.726563 L 93.410156 107.726563 C 93.691406 109.582031 94.1875 110.921875 96.277344 110.921875 C 98.785156 110.921875 99.90625 108.910156 99.90625 106.597656 L 98.925781 106.597656 "/>
<path style=" stroke:none;fill-rule:evenodd;fill:rgb(13.699341%,12.199402%,12.5%);fill-opacity:1;" d="M 109.3125 110.707031 L 99.941406 110.707031 L 99.941406 109.511719 C 101.996094 109.511719 102.636719 109.160156 102.636719 108.023438 L 102.636719 96.71875 C 102.636719 95.582031 101.996094 95.226563 100.082031 95.226563 L 100.082031 94.03125 L 105.714844 93.820313 L 105.714844 98.640625 L 105.785156 98.640625 C 106.53125 95.796875 107.710938 93.609375 110.664063 93.609375 C 112.613281 93.609375 113.464844 94.980469 113.464844 96.046875 C 113.464844 97.003906 112.683594 97.929688 111.585938 97.929688 C 110.449219 97.929688 109.84375 97.253906 109.84375 96.261719 C 109.84375 95.691406 110.09375 95.191406 110.589844 94.871094 C 110.449219 94.835938 110.34375 94.800781 110.128906 94.800781 C 107.742188 94.800781 105.960938 99.171875 105.960938 105.925781 C 105.960938 108.871094 106.175781 109.511719 109.3125 109.511719 L 109.3125 110.707031 "/>
<path style=" stroke:none;fill-rule:evenodd;fill:rgb(13.699341%,12.199402%,12.5%);fill-opacity:1;" d="M 119.226563 93.820313 L 119.226563 97.144531 L 119.296875 97.144531 C 120.570313 94.945313 122.277344 93.609375 124.722656 93.609375 C 127.242188 93.609375 130.003906 94.910156 130.003906 100.097656 L 130.003906 108.023438 C 130.003906 109.160156 130.636719 109.511719 132.515625 109.511719 L 132.515625 110.707031 L 126.671875 110.707031 L 126.671875 98.851563 C 126.671875 95.757813 125.148438 95.015625 123.835938 95.015625 C 121.210938 95.015625 119.507813 98.320313 119.507813 101.019531 L 119.507813 108.023438 C 119.507813 109.160156 120.144531 109.511719 122.277344 109.511719 L 122.277344 110.707031 L 113.664063 110.707031 L 113.664063 109.511719 C 115.542969 109.511719 116.183594 109.160156 116.183594 108.023438 L 116.183594 96.71875 C 116.183594 95.582031 115.542969 95.226563 113.664063 95.226563 L 113.664063 94.03125 L 119.226563 93.820313 "/>
<path style=" stroke:none;fill-rule:evenodd;fill:rgb(13.699341%,12.199402%,12.5%);fill-opacity:1;" d="M 133.554688 110.707031 L 133.554688 109.511719 C 135.613281 109.511719 136.25 109.160156 136.25 108.023438 L 136.25 96.71875 C 136.25 95.582031 135.613281 95.226563 133.554688 95.226563 L 133.554688 94.03125 L 139.574219 93.820313 L 139.574219 108.023438 C 139.574219 109.160156 140.214844 109.511719 142.273438 109.511719 L 142.273438 110.707031 L 133.554688 110.707031 "/>
<path style=" stroke:none;fill-rule:evenodd;fill:rgb(13.699341%,12.199402%,12.5%);fill-opacity:1;" d="M 148.816406 93.820313 L 148.816406 97.144531 L 148.886719 97.144531 C 150.160156 94.945313 151.863281 93.609375 154.3125 93.609375 C 156.828125 93.609375 159.589844 94.910156 159.589844 100.097656 L 159.589844 108.023438 C 159.589844 109.160156 160.230469 109.511719 162.109375 109.511719 L 162.109375 110.707031 L 156.261719 110.707031 L 156.261719 98.851563 C 156.261719 95.757813 154.738281 95.015625 153.425781 95.015625 C 150.800781 95.015625 149.097656 98.320313 149.097656 101.019531 L 149.097656 108.023438 C 149.097656 109.160156 149.734375 109.511719 151.863281 109.511719 L 151.863281 110.707031 L 143.253906 110.707031 L 143.253906 109.511719 C 145.136719 109.511719 145.769531 109.160156 145.769531 108.023438 L 145.769531 96.71875 C 145.769531 95.582031 145.136719 95.226563 143.253906 95.226563 L 143.253906 94.03125 L 148.816406 93.820313 "/>
<path style=" stroke:none;fill-rule:evenodd;fill:rgb(13.699341%,12.199402%,12.5%);fill-opacity:1;" d="M 165.882813 112.933594 C 165.882813 111.558594 167.300781 110.148438 170.605469 110.148438 C 175.039063 110.148438 177.101563 111.277344 177.101563 113.007813 C 177.101563 114.910156 174.898438 116.636719 170.992188 116.636719 C 168.222656 116.636719 165.882813 114.910156 165.882813 112.933594 Z M 168.097656 109.546875 C 166.023438 109.6875 163.328125 111.171875 163.328125 113.324219 C 163.328125 115.859375 166.734375 117.832031 170.992188 117.832031 C 174.683594 117.832031 179.65625 116.039063 179.65625 111.839844 C 179.65625 105.324219 167.242188 108.445313 167.242188 106.03125 C 167.242188 105.074219 168.449219 104.683594 172.492188 104.394531 C 176.011719 104.148438 178.03125 101.199219 178.03125 98.925781 C 178.03125 98 177.824219 97.253906 177.429688 96.613281 C 177.027344 95.972656 176.5 95.371094 175.769531 94.835938 L 175.769531 94.382813 C 175.769531 93.503906 176.328125 93.050781 176.675781 93.050781 C 176.742188 93.050781 176.847656 93.050781 176.953125 93.085938 C 176.917969 93.257813 176.847656 93.574219 176.847656 93.921875 C 176.847656 94.625 177.453125 95.085938 178.273438 95.085938 C 179.089844 95.085938 179.695313 94.453125 179.695313 93.679688 C 179.695313 92.046875 178.59375 91.691406 177.523438 91.691406 C 175.84375 91.691406 174.84375 92.691406 174.84375 94.382813 C 173.917969 93.890625 172.921875 93.609375 170.894531 93.609375 C 166.945313 93.609375 164.394531 96.367188 164.394531 98.996094 C 164.394531 101.589844 166.347656 103.296875 168.617188 104.078125 L 168.617188 104.148438 C 167.351563 104.394531 164.609375 105.460938 164.609375 107.027344 C 164.609375 108.90625 166.566406 109.441406 168.097656 109.476563 Z M 171.214844 94.800781 C 173.136719 94.800781 174.414063 96.183594 174.414063 99.101563 C 174.414063 102.015625 173.136719 103.402344 171.214844 103.402344 C 169.292969 103.402344 168.015625 102.015625 168.015625 99.101563 C 168.015625 96.183594 169.292969 94.800781 171.214844 94.800781 "/>
<path style=" stroke:none;fill-rule:evenodd;fill:rgb(13.699341%,12.199402%,12.5%);fill-opacity:1;" d="M 39.726563 101.296875 C 39.664063 101.621094 39.597656 101.949219 39.515625 102.28125 C 37.585938 109.984375 30.285156 116.351563 22.605469 117.394531 C 29.464844 116.714844 36.605469 114.445313 40.953125 111.257813 C 46.40625 107.261719 45.667969 103.148438 39.726563 101.296875 "/>
<path style=" stroke:none;fill-rule:evenodd;fill:rgb(88.999939%,9.399414%,21.598816%);fill-opacity:1;" d="M 20.429688 117.546875 C 28.859375 117.546875 37.40625 110.710938 39.515625 102.28125 C 41.621094 93.84375 36.496094 87.011719 28.0625 87.011719 C 19.628906 87.011719 11.085938 93.84375 8.976563 102.28125 C 6.871094 110.710938 11.996094 117.546875 20.429688 117.546875 "/>
<path style=" stroke:none;fill-rule:evenodd;fill:rgb(100%,100%,100%);fill-opacity:1;" d="M 30.0625 94.539063 C 29.425781 94 28.453125 93.734375 27.136719 93.734375 C 25.308594 93.734375 23.535156 94.269531 21.808594 95.347656 C 20.082031 96.421875 18.648438 97.929688 17.503906 99.867188 C 16.363281 101.808594 15.792969 103.703125 15.792969 105.550781 C 15.792969 106.933594 16.25 108.195313 17.167969 109.335938 C 18.089844 110.484375 19.453125 111.050781 21.265625 111.050781 C 23.835938 111.050781 26.300781 109.410156 29.121094 106.6875 C 29.121094 106.683594 29.117188 106.679688 29.117188 106.675781 C 27.652344 107.757813 26.332031 108.167969 25.5625 108.503906 C 24.722656 108.867188 23.851563 109.046875 22.945313 109.046875 C 21.808594 109.046875 20.847656 108.667969 20.054688 107.90625 C 19.261719 107.140625 18.863281 106.21875 18.863281 105.128906 C 18.863281 104.730469 18.894531 104.222656 18.960938 103.609375 C 21.519531 103.324219 23.507813 102.925781 24.921875 102.414063 C 27.050781 101.652344 28.664063 100.65625 29.761719 99.421875 C 30.59375 98.472656 31.011719 97.480469 31.011719 96.445313 C 31.011719 95.710938 30.695313 95.074219 30.0625 94.539063 Z M 27.167969 99.136719 C 26.390625 100.082031 25.226563 100.898438 23.667969 101.578125 C 22.492188 102.085938 20.964844 102.445313 19.09375 102.65625 C 19.773438 100.03125 20.84375 98.046875 22.292969 96.703125 C 23.742188 95.359375 25.109375 94.6875 26.402344 94.6875 C 27.023438 94.6875 27.5 94.847656 27.835938 95.167969 C 28.171875 95.492188 28.339844 95.914063 28.339844 96.433594 C 28.339844 97.289063 27.949219 98.191406 27.167969 99.136719 "/>
<path style=" stroke:none;fill-rule:evenodd;fill:rgb(100%,100%,100%);fill-opacity:1;" d="M 30.726563 104.292969 C 31.359375 104.292969 31.871094 104.804688 31.871094 105.4375 C 31.871094 106.074219 31.359375 106.585938 30.726563 106.585938 C 30.089844 106.585938 29.578125 106.074219 29.578125 105.4375 C 29.578125 104.804688 30.089844 104.292969 30.726563 104.292969 "/>
<path style=" stroke:none;fill-rule:evenodd;fill:rgb(88.999939%,9.399414%,21.598816%);fill-opacity:1;" d="M 136.367188 85.414063 C 110.878906 70.226563 65.835938 90.296875 65.835938 90.296875 C 65.835938 90.296875 112.820313 71.253906 134.234375 88.351563 C 134.28125 86.992188 135.15625 85.855469 136.367188 85.414063 "/>
<path style=" stroke:none;fill-rule:evenodd;fill:rgb(88.999939%,9.399414%,21.598816%);fill-opacity:1;" d="M 137.480469 86.472656 C 138.578125 86.472656 139.46875 87.363281 139.46875 88.460938 C 139.46875 89.5625 138.578125 90.453125 137.480469 90.453125 C 136.382813 90.453125 135.488281 89.5625 135.488281 88.460938 C 135.488281 87.363281 136.382813 86.472656 137.480469 86.472656 "/>
<path style=" stroke:none;fill-rule:evenodd;fill:rgb(13.699341%,12.199402%,12.5%);fill-opacity:1;" d="M 24.078125 79.972656 L 24.351563 79.972656 C 24.460938 80.578125 24.703125 81.113281 25.078125 81.589844 C 25.464844 82.078125 25.960938 82.332031 26.578125 82.34375 C 26.964844 82.34375 27.308594 82.222656 27.597656 81.976563 C 27.894531 81.746094 28.046875 81.425781 28.050781 81.015625 C 28.050781 80.726563 28 80.480469 27.898438 80.289063 C 27.785156 80.105469 27.632813 79.953125 27.4375 79.839844 C 27.246094 79.714844 27.035156 79.617188 26.804688 79.546875 C 26.683594 79.503906 26.566406 79.46875 26.453125 79.429688 C 26.332031 79.394531 26.207031 79.363281 26.074219 79.339844 C 25.820313 79.269531 25.578125 79.1875 25.347656 79.085938 C 25.117188 78.992188 24.90625 78.878906 24.714844 78.734375 C 24.53125 78.59375 24.382813 78.410156 24.269531 78.179688 C 24.148438 77.964844 24.089844 77.691406 24.089844 77.355469 C 24.09375 76.734375 24.320313 76.253906 24.761719 75.914063 C 25.175781 75.582031 25.65625 75.414063 26.207031 75.414063 C 26.4375 75.414063 26.644531 75.441406 26.820313 75.496094 C 26.992188 75.554688 27.144531 75.628906 27.269531 75.699219 C 27.390625 75.773438 27.503906 75.84375 27.601563 75.910156 C 27.691406 75.976563 27.765625 76.011719 27.820313 76.011719 C 27.863281 76.011719 27.902344 75.988281 27.941406 75.9375 C 27.972656 75.90625 28.003906 75.859375 28.027344 75.804688 C 28.085938 75.691406 28.113281 75.601563 28.128906 75.535156 L 28.457031 75.53125 L 28.457031 77.902344 L 28.183594 77.902344 C 28.0625 77.367188 27.847656 76.878906 27.539063 76.445313 C 27.230469 76.003906 26.789063 75.777344 26.210938 75.765625 C 25.832031 75.765625 25.523438 75.867188 25.285156 76.074219 C 25.035156 76.28125 24.902344 76.585938 24.898438 77.003906 C 24.898438 77.234375 24.957031 77.433594 25.078125 77.585938 C 25.1875 77.75 25.335938 77.886719 25.523438 77.996094 C 25.714844 78.089844 25.925781 78.175781 26.15625 78.261719 C 26.390625 78.335938 26.632813 78.410156 26.882813 78.492188 C 27.398438 78.617188 27.851563 78.816406 28.25 79.089844 C 28.441406 79.230469 28.59375 79.40625 28.707031 79.617188 C 28.8125 79.832031 28.863281 80.097656 28.863281 80.417969 C 28.855469 81.132813 28.628906 81.6875 28.179688 82.082031 C 27.734375 82.484375 27.167969 82.691406 26.488281 82.695313 C 26.261719 82.691406 26.0625 82.65625 25.890625 82.601563 C 25.726563 82.546875 25.582031 82.488281 25.457031 82.425781 C 25.332031 82.351563 25.21875 82.289063 25.117188 82.230469 C 25.015625 82.183594 24.917969 82.160156 24.824219 82.160156 C 24.703125 82.160156 24.609375 82.203125 24.542969 82.296875 C 24.476563 82.382813 24.414063 82.496094 24.351563 82.632813 L 24.078125 82.632813 L 24.078125 79.972656 "/>
<path style=" stroke:none;fill-rule:evenodd;fill:rgb(13.699341%,12.199402%,12.5%);fill-opacity:1;" d="M 35.867188 82.566406 L 35.867188 79.132813 C 35.882813 78.410156 35.589844 78.042969 34.984375 78.035156 C 34.867188 78.035156 34.746094 78.0625 34.621094 78.105469 C 34.5 78.15625 34.382813 78.246094 34.269531 78.378906 C 34.167969 78.507813 34.085938 78.675781 34.019531 78.886719 C 33.949219 79.105469 33.914063 79.378906 33.914063 79.710938 L 33.914063 81.785156 C 33.914063 81.941406 33.972656 82.054688 34.085938 82.117188 C 34.195313 82.183594 34.386719 82.21875 34.65625 82.21875 L 34.65625 82.566406 L 32.988281 82.566406 L 32.988281 79.132813 C 33.003906 78.410156 32.710938 78.042969 32.105469 78.035156 C 31.988281 78.035156 31.867188 78.0625 31.742188 78.105469 C 31.617188 78.15625 31.5 78.246094 31.386719 78.378906 C 31.285156 78.507813 31.203125 78.675781 31.140625 78.886719 C 31.070313 79.105469 31.039063 79.378906 31.039063 79.710938 L 31.039063 81.785156 C 31.039063 81.941406 31.097656 82.054688 31.214844 82.117188 C 31.328125 82.183594 31.539063 82.21875 31.84375 82.21875 L 31.84375 82.566406 L 29.375 82.566406 L 29.375 82.21875 C 29.652344 82.21875 29.847656 82.183594 29.960938 82.117188 C 30.058594 82.054688 30.109375 81.941406 30.109375 81.785156 L 30.109375 78.527344 C 30.109375 78.367188 30.058594 78.25 29.960938 78.183594 C 29.847656 78.128906 29.652344 78.101563 29.375 78.101563 L 29.375 77.761719 L 31.015625 77.695313 L 31.015625 78.613281 L 31.039063 78.613281 C 31.261719 77.972656 31.691406 77.644531 32.335938 77.632813 C 33.085938 77.625 33.578125 77.988281 33.816406 78.71875 C 34.164063 77.988281 34.664063 77.625 35.304688 77.632813 C 35.476563 77.632813 35.648438 77.648438 35.820313 77.679688 C 35.996094 77.730469 36.15625 77.8125 36.296875 77.925781 C 36.445313 78.035156 36.570313 78.199219 36.660156 78.410156 C 36.75 78.621094 36.796875 78.890625 36.796875 79.21875 L 36.796875 81.785156 C 36.796875 81.941406 36.855469 82.054688 36.96875 82.117188 C 37.070313 82.183594 37.253906 82.21875 37.519531 82.21875 L 37.519531 82.566406 L 35.867188 82.566406 "/>
<path style=" stroke:none;fill-rule:evenodd;fill:rgb(13.699341%,12.199402%,12.5%);fill-opacity:1;" d="M 43.007813 81.378906 C 43.007813 81.71875 42.929688 82.003906 42.765625 82.242188 C 42.597656 82.496094 42.332031 82.625 41.972656 82.632813 C 41.691406 82.625 41.492188 82.535156 41.378906 82.367188 C 41.265625 82.195313 41.1875 81.976563 41.160156 81.710938 L 41.136719 81.710938 C 40.996094 82.089844 40.789063 82.34375 40.511719 82.480469 C 40.226563 82.625 39.890625 82.695313 39.515625 82.695313 C 39.144531 82.695313 38.820313 82.597656 38.542969 82.398438 C 38.25 82.203125 38.097656 81.914063 38.09375 81.515625 C 38.097656 81.214844 38.21875 80.957031 38.445313 80.746094 C 38.664063 80.535156 38.9375 80.355469 39.265625 80.207031 C 39.589844 80.054688 39.914063 79.925781 40.242188 79.824219 C 40.5625 79.722656 40.832031 79.636719 41.046875 79.566406 L 41.046875 78.617188 C 41.035156 78.363281 40.914063 78.195313 40.683594 78.101563 C 40.453125 78.023438 40.234375 77.984375 40.019531 77.984375 C 39.679688 77.976563 39.363281 78.0625 39.070313 78.238281 C 39.355469 78.296875 39.503906 78.480469 39.511719 78.777344 C 39.511719 78.933594 39.457031 79.070313 39.351563 79.1875 C 39.25 79.3125 39.109375 79.371094 38.9375 79.371094 C 38.765625 79.371094 38.628906 79.3125 38.53125 79.1875 C 38.417969 79.070313 38.363281 78.933594 38.363281 78.777344 C 38.371094 78.453125 38.542969 78.175781 38.878906 77.957031 C 39.203125 77.746094 39.59375 77.636719 40.050781 77.632813 C 40.699219 77.632813 41.179688 77.730469 41.5 77.929688 C 41.816406 78.136719 41.976563 78.507813 41.976563 79.046875 L 41.976563 81.527344 C 41.976563 81.769531 42.003906 81.929688 42.070313 81.996094 C 42.128906 82.070313 42.210938 82.109375 42.308594 82.101563 C 42.484375 82.09375 42.601563 82 42.660156 81.824219 C 42.707031 81.664063 42.730469 81.515625 42.730469 81.378906 Z M 41.046875 79.902344 C 40.664063 79.980469 40.261719 80.152344 39.847656 80.410156 C 39.652344 80.542969 39.488281 80.695313 39.359375 80.871094 C 39.226563 81.050781 39.160156 81.25 39.160156 81.480469 C 39.160156 81.703125 39.21875 81.894531 39.339844 82.046875 C 39.460938 82.195313 39.636719 82.269531 39.867188 82.269531 C 40.199219 82.269531 40.480469 82.128906 40.710938 81.851563 C 40.929688 81.582031 41.042969 81.230469 41.046875 80.792969 L 41.046875 79.902344 "/>
<path style=" stroke:none;fill-rule:evenodd;fill:rgb(13.699341%,12.199402%,12.5%);fill-opacity:1;" d="M 45.710938 82.566406 L 43.105469 82.566406 L 43.105469 82.21875 C 43.390625 82.21875 43.589844 82.183594 43.703125 82.117188 C 43.804688 82.054688 43.855469 81.945313 43.855469 81.785156 L 43.855469 78.53125 C 43.855469 78.367188 43.808594 78.25 43.714844 78.183594 C 43.597656 78.128906 43.410156 78.101563 43.144531 78.101563 L 43.144531 77.761719 L 44.714844 77.695313 L 44.714844 79.085938 L 44.738281 79.085938 C 44.839844 78.664063 44.992188 78.316406 45.191406 78.042969 C 45.394531 77.773438 45.695313 77.636719 46.089844 77.632813 C 46.367188 77.636719 46.570313 77.714844 46.695313 77.859375 C 46.8125 78.011719 46.871094 78.175781 46.871094 78.335938 C 46.871094 78.472656 46.828125 78.597656 46.734375 78.707031 C 46.636719 78.824219 46.507813 78.882813 46.347656 78.882813 C 46.023438 78.878906 45.859375 78.714844 45.859375 78.402344 C 45.859375 78.230469 45.929688 78.09375 46.070313 78.003906 C 46.039063 77.988281 45.996094 77.984375 45.941406 77.984375 C 45.609375 77.988281 45.339844 78.277344 45.117188 78.84375 C 44.894531 79.414063 44.785156 80.199219 44.785156 81.1875 C 44.777344 81.59375 44.828125 81.867188 44.933594 82.011719 C 45.039063 82.15625 45.296875 82.226563 45.710938 82.21875 L 45.710938 82.566406 "/>
<path style=" stroke:none;fill-rule:evenodd;fill:rgb(13.699341%,12.199402%,12.5%);fill-opacity:1;" d="M 48.617188 76.160156 L 48.617188 77.761719 L 50 77.761719 L 50 78.109375 L 48.617188 78.109375 L 48.617188 81.8125 C 48.617188 82.027344 48.679688 82.160156 48.789063 82.230469 C 48.894531 82.304688 49.023438 82.34375 49.167969 82.34375 C 49.371094 82.351563 49.542969 82.269531 49.683594 82.101563 C 49.816406 81.933594 49.882813 81.644531 49.890625 81.242188 L 49.890625 81.027344 L 50.164063 81.027344 L 50.164063 81.199219 C 50.171875 81.664063 50.089844 82.027344 49.914063 82.285156 C 49.738281 82.550781 49.40625 82.691406 48.921875 82.695313 C 48.5625 82.703125 48.273438 82.617188 48.046875 82.4375 C 47.933594 82.351563 47.851563 82.226563 47.789063 82.0625 C 47.726563 81.894531 47.695313 81.691406 47.695313 81.449219 L 47.695313 78.109375 L 46.96875 78.109375 L 46.96875 77.761719 C 47.410156 77.730469 47.710938 77.605469 47.867188 77.390625 C 48.027344 77.179688 48.160156 76.765625 48.265625 76.160156 L 48.617188 76.160156 "/>
<path style=" stroke:none;fill-rule:evenodd;fill:rgb(13.699341%,12.199402%,12.5%);fill-opacity:1;" d="M 56.089844 78.007813 C 55.957031 77.289063 55.710938 76.757813 55.351563 76.402344 C 54.988281 76.054688 54.445313 75.882813 53.714844 75.882813 C 53.246094 75.882813 52.933594 75.929688 52.773438 76.023438 C 52.617188 76.132813 52.539063 76.3125 52.546875 76.554688 L 52.546875 78.699219 C 53.070313 78.710938 53.464844 78.636719 53.730469 78.472656 C 53.871094 78.386719 53.988281 78.253906 54.085938 78.085938 C 54.183594 77.917969 54.273438 77.683594 54.351563 77.390625 L 54.625 77.390625 L 54.625 80.367188 L 54.351563 80.367188 C 54.273438 80.0625 54.183594 79.820313 54.085938 79.640625 C 53.988281 79.46875 53.871094 79.339844 53.730469 79.265625 C 53.464844 79.105469 53.070313 79.03125 52.546875 79.050781 L 52.546875 81.542969 C 52.539063 81.78125 52.613281 81.953125 52.765625 82.058594 C 52.914063 82.164063 53.207031 82.21875 53.644531 82.21875 L 53.644531 82.566406 L 50.621094 82.566406 L 50.621094 82.21875 C 50.996094 82.21875 51.242188 82.164063 51.367188 82.058594 C 51.480469 81.953125 51.535156 81.78125 51.535156 81.542969 L 51.535156 76.558594 C 51.535156 76.3125 51.480469 76.132813 51.367188 76.023438 C 51.300781 75.96875 51.207031 75.933594 51.09375 75.910156 C 50.972656 75.894531 50.816406 75.882813 50.621094 75.882813 L 50.621094 75.53125 L 56.335938 75.53125 L 56.394531 78.007813 L 56.089844 78.007813 "/>
<path style=" stroke:none;fill-rule:evenodd;fill:rgb(13.699341%,12.199402%,12.5%);fill-opacity:1;" d="M 59.359375 77.632813 C 60.054688 77.636719 60.625 77.871094 61.078125 78.328125 C 61.523438 78.789063 61.753906 79.402344 61.765625 80.164063 C 61.753906 80.917969 61.523438 81.519531 61.078125 81.976563 C 60.625 82.449219 60.054688 82.691406 59.359375 82.695313 C 58.679688 82.691406 58.113281 82.449219 57.660156 81.976563 C 57.199219 81.519531 56.96875 80.917969 56.960938 80.164063 C 56.96875 79.402344 57.199219 78.789063 57.660156 78.328125 C 58.113281 77.871094 58.679688 77.636719 59.359375 77.632813 Z M 59.359375 82.34375 C 59.773438 82.351563 60.097656 82.195313 60.34375 81.875 C 60.578125 81.5625 60.695313 80.992188 60.703125 80.164063 C 60.695313 79.335938 60.578125 78.757813 60.34375 78.429688 C 60.097656 78.128906 59.773438 77.976563 59.359375 77.984375 C 58.957031 77.976563 58.640625 78.128906 58.402344 78.429688 C 58.152344 78.757813 58.023438 79.335938 58.023438 80.164063 C 58.023438 80.992188 58.152344 81.5625 58.402344 81.875 C 58.636719 82.195313 58.957031 82.351563 59.359375 82.34375 "/>
<path style=" stroke:none;fill-rule:evenodd;fill:rgb(13.699341%,12.199402%,12.5%);fill-opacity:1;" d="M 65.046875 82.566406 L 62.441406 82.566406 L 62.441406 82.21875 C 62.722656 82.21875 62.925781 82.183594 63.035156 82.117188 C 63.144531 82.054688 63.195313 81.945313 63.195313 81.785156 L 63.195313 78.53125 C 63.195313 78.367188 63.144531 78.25 63.046875 78.183594 C 62.933594 78.128906 62.742188 78.101563 62.480469 78.101563 L 62.480469 77.761719 L 64.046875 77.695313 L 64.046875 79.085938 L 64.074219 79.085938 C 64.175781 78.664063 64.328125 78.316406 64.527344 78.042969 C 64.730469 77.773438 65.027344 77.636719 65.425781 77.632813 C 65.703125 77.636719 65.902344 77.714844 66.03125 77.859375 C 66.148438 78.011719 66.207031 78.175781 66.207031 78.335938 C 66.207031 78.472656 66.160156 78.597656 66.066406 78.707031 C 65.972656 78.824219 65.84375 78.882813 65.679688 78.882813 C 65.359375 78.878906 65.199219 78.714844 65.199219 78.402344 C 65.199219 78.230469 65.269531 78.09375 65.40625 78.003906 C 65.371094 77.988281 65.332031 77.984375 65.277344 77.984375 C 64.945313 77.988281 64.671875 78.277344 64.453125 78.84375 C 64.230469 79.414063 64.121094 80.199219 64.121094 81.1875 C 64.113281 81.59375 64.160156 81.867188 64.269531 82.011719 C 64.375 82.15625 64.632813 82.226563 65.046875 82.21875 L 65.046875 82.566406 "/>
<path style=" stroke:none;fill-rule:evenodd;fill:rgb(13.699341%,12.199402%,12.5%);fill-opacity:1;" d="M 70.976563 81.527344 C 70.585938 82.28125 69.9375 82.671875 69.03125 82.695313 C 68.34375 82.691406 67.777344 82.449219 67.339844 81.976563 C 66.875 81.511719 66.640625 80.910156 66.636719 80.164063 C 66.648438 79.410156 66.914063 78.800781 67.4375 78.335938 C 67.941406 77.875 68.535156 77.636719 69.222656 77.632813 C 69.648438 77.632813 70.027344 77.730469 70.351563 77.929688 C 70.507813 78.023438 70.636719 78.144531 70.726563 78.285156 C 70.820313 78.429688 70.867188 78.59375 70.867188 78.777344 C 70.867188 78.960938 70.8125 79.109375 70.710938 79.230469 C 70.597656 79.363281 70.445313 79.433594 70.253906 79.433594 C 70.070313 79.433594 69.921875 79.378906 69.808594 79.273438 C 69.699219 79.171875 69.640625 79.039063 69.640625 78.882813 C 69.640625 78.566406 69.808594 78.398438 70.148438 78.390625 C 70.21875 78.390625 70.289063 78.398438 70.355469 78.414063 C 70.1875 78.128906 69.824219 77.984375 69.257813 77.984375 C 68.238281 77.988281 67.71875 78.675781 67.699219 80.050781 C 67.699219 80.699219 67.820313 81.238281 68.066406 81.667969 C 68.3125 82.117188 68.691406 82.339844 69.21875 82.34375 C 69.578125 82.34375 69.878906 82.253906 70.125 82.070313 C 70.359375 81.894531 70.5625 81.675781 70.726563 81.40625 L 70.976563 81.527344 "/>
<path style=" stroke:none;fill-rule:evenodd;fill:rgb(13.699341%,12.199402%,12.5%);fill-opacity:1;" d="M 72.808594 80.140625 C 72.832031 81.59375 73.3125 82.332031 74.242188 82.34375 C 74.574219 82.34375 74.859375 82.25 75.105469 82.058594 C 75.339844 81.886719 75.546875 81.667969 75.730469 81.40625 L 75.96875 81.566406 C 75.757813 81.910156 75.496094 82.179688 75.183594 82.375 C 74.867188 82.582031 74.445313 82.691406 73.917969 82.695313 C 73.292969 82.679688 72.777344 82.425781 72.375 81.9375 C 71.960938 81.453125 71.746094 80.859375 71.738281 80.164063 C 71.746094 79.453125 71.960938 78.859375 72.375 78.378906 C 72.777344 77.894531 73.292969 77.644531 73.917969 77.632813 C 74.519531 77.632813 75.019531 77.84375 75.410156 78.261719 C 75.808594 78.675781 76.007813 79.304688 76.015625 80.140625 Z M 75.003906 79.785156 C 75.003906 79.597656 74.996094 79.398438 74.976563 79.191406 C 74.949219 78.980469 74.898438 78.785156 74.820313 78.601563 C 74.738281 78.421875 74.625 78.269531 74.480469 78.152344 C 74.335938 78.039063 74.140625 77.984375 73.898438 77.984375 C 73.664063 77.984375 73.476563 78.039063 73.339844 78.152344 C 73.195313 78.269531 73.082031 78.421875 73.003906 78.601563 C 72.925781 78.785156 72.871094 78.980469 72.84375 79.191406 C 72.820313 79.398438 72.808594 79.597656 72.808594 79.785156 L 75.003906 79.785156 "/>
<path style=" stroke:none;fill-rule:evenodd;fill:rgb(13.699341%,12.199402%,12.5%);fill-opacity:1;" d="M 180.105469 108.644531 L 181.882813 108.644531 L 181.882813 108.976563 L 181.183594 108.976563 L 181.183594 110.839844 L 180.796875 110.839844 L 180.796875 108.976563 L 180.105469 108.976563 L 180.105469 108.644531 "/>
<path style=" stroke:none;fill-rule:evenodd;fill:rgb(13.699341%,12.199402%,12.5%);fill-opacity:1;" d="M 181.96875 108.644531 L 182.511719 108.644531 L 183.117188 110.363281 L 183.125 110.363281 L 183.714844 108.644531 L 184.253906 108.644531 L 184.253906 110.839844 L 183.882813 110.839844 L 183.882813 109.148438 L 183.878906 109.148438 L 183.269531 110.839844 L 182.953125 110.839844 L 182.34375 109.148438 L 182.335938 109.148438 L 182.335938 110.839844 L 181.96875 110.839844 L 181.96875 108.644531 "/>
</g>
</svg>
